<svg width="92" height="92" viewBox="0 0 92 92" fill="none" xmlns="http://www.w3.org/2000/svg">
<rect x="1" y="91" width="90" height="90" rx="45" transform="rotate(-90 1 91)" stroke="white" stroke-width="2"/>
<path d="M29.3333 43.9167C28.1827 43.9167 27.25 44.8494 27.25 46C27.25 47.1506 28.1827 48.0833 29.3333 48.0833L58.6787 48.0833L48.6935 58.0685C47.8799 58.8821 47.8799 60.2012 48.6935 61.0148C49.5071 61.8284 50.8262 61.8284 51.6398 61.0148L63.7083 48.9463C65.3355 47.3191 65.3355 44.6809 63.7083 43.0537L51.6398 30.9852C50.8262 30.1716 49.5071 30.1716 48.6935 30.9852C47.8799 31.7988 47.8799 33.1179 48.6935 33.9315L58.6787 43.9167L29.3333 43.9167Z" fill="white"/>
</svg>
